<?xml version="1.0" encoding="UTF-8" standalone="no"?><!DOCTYPE svg PUBLIC "-//W3C//DTD SVG 1.1//EN" "http://www.w3.org/Graphics/SVG/1.1/DTD/svg11.dtd"><svg width="100%" height="100%" viewBox="0 0 3750 3750" version="1.1" xmlns="http://www.w3.org/2000/svg" xmlns:xlink="http://www.w3.org/1999/xlink" xml:space="preserve" xmlns:serif="http://www.serif.com/" style="fill-rule:evenodd;clip-rule:evenodd;stroke-linecap:round;stroke-linejoin:round;stroke-miterlimit:1.5;"><rect id="Artboard2" x="0" y="0" width="3750" height="3750" style="fill:none;"/><g id="Artboard21" serif:id="Artboard2"><path d="M1883.73,360.359l1344.55,776.276l-0,1552.55l-1344.55,776.276l-1344.55,-776.276l-0,-1552.55l1344.55,-776.276Z" style="fill:#13a430;stroke:#13cb38;stroke-width:45.83px;"/><g transform="matrix(353.281,0,0,353.281,2765.18,2659.66)"></g><text x="1096.41px" y="2659.66px" style="font-family:'Arial-BoldMT', 'Arial', sans-serif;font-weight:700;font-size:353.281px;fill:#f7f3f3;">MasRemL</text><path d="M2005.17,3220.61l695.136,-394.932" style="fill:none;stroke:#13c436;stroke-width:95.83px;"/><g><g><path d="M1889.04,1261.17c61.7,-0.231 533.72,10.221 623.517,381.463c0,0 -238.703,547.812 -615.841,570.308l0.001,0.621c-2.565,-0.055 -5.124,-0.134 -7.677,-0.237c-2.552,0.103 -5.111,0.182 -7.676,0.237l0.001,-0.621c-377.138,-22.496 -615.842,-570.308 -615.842,-570.308c89.797,-371.242 561.817,-381.694 623.517,-381.463Z" style="fill:#f7f3f3;"/><path d="M2536.15,1552.46c0,-0 -18.674,-161.946 -212.332,-233.262c-0.614,-0.226 -1.227,-0.454 -1.84,-0.685c-14.005,-5.369 -307.586,-120.527 -259.277,-316.112c0,-0 115.746,156.437 295.975,116.509c0,-0 -83.777,-177.093 -237.887,-196.089c-0,0 255.706,-150.822 495.614,224.288c1.702,2.665 3.311,5.389 4.824,8.165c19.098,35.525 117.288,241.631 -85.077,397.186Z" style="fill:#f7f3f3;"/><path d="M1241.66,1552.46c0,-0 18.674,-161.946 212.332,-233.262c0.614,-0.226 1.228,-0.454 1.84,-0.685c14.005,-5.369 307.586,-120.527 259.277,-316.112c-0,-0 -115.746,156.437 -295.975,116.509c-0,-0 83.777,-177.093 237.887,-196.089c0,0 -255.706,-150.822 -495.614,224.288c-1.702,2.665 -3.311,5.389 -4.824,8.165c-19.098,35.525 -117.288,241.631 85.077,397.186Z" style="fill:#f7f3f3;"/><g><path d="M2012.2,867.122l-3.267,31.418c2.209,-2.331 4.375,-4.662 6.496,-7.062l-3.229,-24.356Z" style="fill:#f7f3f3;fill-rule:nonzero;"/><path d="M1974.41,929.944c4.903,-3.659 9.626,-7.561 14.201,-11.632l-7.662,-71.77l-6.539,83.402Z" style="fill:#f7f3f3;fill-rule:nonzero;"/><path d="M1942.07,950.197c6.025,-3.082 11.972,-6.477 17.812,-10.219l-10.123,-110.358l-7.689,120.577Z" style="fill:#f7f3f3;fill-rule:nonzero;"/><path d="M1910.67,963.43c6.536,-2.183 13.008,-4.679 19.389,-7.488l-11.391,-135.96l-7.998,143.448Z" style="fill:#f7f3f3;fill-rule:nonzero;"/><path d="M1879.66,971.186c6.667,-1.14 13.345,-2.627 19.944,-4.428l-12.007,-152.718l-7.937,157.146Z" style="fill:#f7f3f3;fill-rule:nonzero;"/><path d="M1772.49,930.164l-7.915,-59.567l-4.931,47.616c4.162,4.124 8.44,8.143 12.846,11.951Z" style="fill:#f7f3f3;fill-rule:nonzero;"/><path d="M1806.52,954.853l-11.289,-105.704l-7.336,93.453c5.954,4.411 12.123,8.508 18.625,12.251Z" style="fill:#f7f3f3;fill-rule:nonzero;"/><path d="M1838.82,971.48l-12.886,-140.122l-8.223,129.509l21.109,10.613Z" style="fill:#f7f3f3;fill-rule:nonzero;"/><path d="M1869.47,972.653l-12.727,-151.801l-8.549,153.285c7.078,-0.134 14.18,-0.616 21.276,-1.484Z" style="fill:#f7f3f3;fill-rule:nonzero;"/><path d="M2145.71,823.455c-4.178,5.218 -8.221,10.573 -12.145,16.065l6.092,51.853l6.053,-67.918Z" style="fill:#f7f3f3;fill-rule:nonzero;"/><path d="M2170.97,916.659l8.526,-127.735c-6.697,5.323 -12.99,11.232 -18.999,17.557l10.473,110.178Z" style="fill:#f7f3f3;fill-rule:nonzero;"/><path d="M1613.86,836.6c-0.804,-0.861 -1.592,-1.685 -2.366,-2.547l8.932,79.84l5.333,-63.899c-1.028,-1.207 -2.086,-2.447 -3.144,-3.651c-2.979,-3.41 -5.912,-6.68 -8.755,-9.743Z" style="fill:#f7f3f3;fill-rule:nonzero;"/><path d="M1577.4,803.892l12.475,139.046l7.556,-122.735c-6.786,-6.213 -13.458,-11.663 -20.031,-16.311Z" style="fill:#f7f3f3;fill-rule:nonzero;"/><path d="M1627.38,830.729c7.682,8.412 23.064,26.694 38.788,44.178c5.077,-7.915 10.228,-15.83 15.556,-23.642c-12.853,-14.531 -26.227,-28.564 -41.045,-41.08c-15.07,-12.747 -30.726,-22.282 -44.941,-28.405c-18.523,-8.038 -38.444,-12.394 -59.527,-11.749c14.158,3.077 27.312,8.749 39.582,16.212c19.291,11.662 36.284,27.684 51.587,44.486Z" style="fill:#f7f3f3;fill-rule:nonzero;"/><path d="M2134.74,817.186c-6.924,9.047 -20.676,28.591 -34.835,47.37c-5.748,-7.446 -11.554,-14.885 -17.549,-22.208c11.551,-15.588 23.665,-30.726 37.338,-44.477c13.918,-14.004 28.687,-24.855 42.333,-32.189c17.747,-9.607 37.229,-15.673 58.275,-16.854c-13.835,4.292 -26.448,11.08 -38.025,19.576c-18.208,13.287 -33.749,30.72 -47.537,48.782Z" style="fill:#f7f3f3;fill-rule:nonzero;"/><path d="M1712.13,920.971c13.725,11.904 28.269,22.644 43.943,31.383c3.723,2.074 7.518,4.077 11.413,5.905c3.038,1.351 6.134,2.597 9.212,3.706c3.125,1.21 6.276,2.282 9.427,3.248c6.404,2.037 12.876,3.689 19.418,5.026c-6.601,-3.498 -12.87,-7.349 -18.922,-11.447c-3.936,-2.664 -7.743,-5.468 -11.477,-8.378c-6.031,-4.657 -11.772,-9.595 -17.355,-14.711c-11.063,-10.164 -21.359,-21.103 -31.382,-32.396c-2.693,3.35 -5.445,6.735 -8.212,10.155c-2.031,2.503 -4.048,5.007 -6.065,7.509Z" style="fill:#f7f3f3;fill-rule:nonzero;"/><path d="M2065.64,917.161c-5.17,-5.924 -10.208,-11.918 -15.201,-17.843c-3.875,-4.582 -7.735,-9.129 -11.595,-13.641c-32.322,38.45 -61.057,65.09 -107.535,84.924c-68.549,28.336 -140.008,21.692 -196.468,-13.801c-6.507,-4.126 -13.312,-9.678 -19.647,-13.005c53.818,66.59 148.273,100.367 230.562,72.372c52.72,-17.832 88.17,-53.795 119.884,-99.006Z" style="fill:#f7f3f3;fill-rule:nonzero;"/><path d="M2063.28,855.878c-39.679,-37.735 -70.717,-51.905 -103.657,-58.604c36.816,19.695 63.492,48.935 88.268,77.505c12.1,14.124 24.223,28.847 35.406,41.402c39.306,44.534 83.292,83.187 145.485,81.269c-56.72,-12.258 -93.566,-64.348 -129.928,-104.912c-10.748,-11.801 -21.94,-23.925 -35.574,-36.66Z" style="fill:#f7f3f3;fill-rule:nonzero;"/><path d="M1686.36,930.256c34.382,-40.988 61.339,-79.492 100.755,-107.487c63.681,-45.209 144.79,-56.997 214.774,-26.925c28.608,12.319 36.819,21.934 47.939,27.841c-53.818,-66.59 -148.303,-100.366 -230.562,-72.406c-13.012,4.435 -25.901,10.332 -38.445,17.828c-54.319,32.388 -86.804,88.433 -120.44,140.842c-29.331,45.798 -65.409,93.363 -120.704,107.419c20.535,-5.23 63.76,10.525 146.683,-87.112Z" style="fill:#f7f3f3;fill-rule:nonzero;"/></g><g><path d="M2723.53,1694.89c-0,-0 42.263,83.656 19.096,212.367c-0,-0 -27.215,-121.508 -79.085,-153.583l59.989,-58.784Z" style="fill:#f7f3f3;"/><path d="M2617.02,1659.95c0,-0 124.774,-40.287 113.908,64.233c-1.416,15.737 -8.223,30.503 -19.269,41.801c-20.401,21.236 -58.6,39.211 -97.22,-53.811l2.581,-52.223Z" style="fill:#f7f3f3;"/><path d="M2491.34,1669.62c-0,0 100.387,-64.919 144.409,-8.434c9.123,11.345 10.918,26.922 4.615,40.045c-15.842,32.613 -67.603,95.876 -230.185,99.874l81.161,-131.485Z" style="fill:#f7f3f3;"/></g><g><path d="M1051.95,1694.89c-0,-0 -42.263,83.656 -19.097,212.367c0,-0 27.215,-121.508 79.086,-153.583l-59.989,-58.784Z" style="fill:#f7f3f3;"/><path d="M1158.45,1659.95c0,-0 -124.774,-40.287 -113.908,64.233c1.417,15.737 8.223,30.503 19.27,41.801c20.401,21.236 58.599,39.211 97.219,-53.811l-2.581,-52.223Z" style="fill:#f7f3f3;"/><path d="M1284.13,1669.62c-0,0 -100.387,-64.919 -144.41,-8.434c-9.123,11.345 -10.918,26.922 -4.614,40.045c15.841,32.613 67.603,95.876 230.184,99.874l-81.16,-131.485Z" style="fill:#f7f3f3;"/></g><g><path d="M2609.89,1906.87c-0,-0 40.134,82.35 15.116,187.036c-0,-0 -9.811,-76.298 -71.056,-138.715l55.94,-48.321Z" style="fill:#f7f3f3;"/><path d="M2519.89,1840.38c0,-0 174.848,-30.952 69.625,112.169c-10.295,14.086 -27.981,20.701 -44.994,16.828c-18.05,-4.16 -38.786,-19.567 -51.135,-64.085l26.504,-64.912Z" style="fill:#f7f3f3;"/><path d="M2366.41,1871.82c0,0 121.97,-80.588 156.864,-33.227c9.476,12.931 9.992,30.367 1.298,43.835c-17.964,27.351 -76.265,81.639 -258.396,93.413l100.234,-104.021Z" style="fill:#f7f3f3;"/></g><g><path d="M1165.58,1906.87c0,-0 -40.134,82.35 -15.115,187.036c-0,-0 9.811,-76.298 71.055,-138.715l-55.94,-48.321Z" style="fill:#f7f3f3;"/><path d="M1255.58,1840.38c0,-0 -174.847,-30.952 -69.624,112.169c10.294,14.086 27.981,20.701 44.993,16.828c18.05,-4.16 38.786,-19.567 51.135,-64.085l-26.504,-64.912Z" style="fill:#f7f3f3;"/><path d="M1409.06,1871.82c-0,0 -121.97,-80.588 -156.864,-33.227c-9.476,12.931 -9.992,30.367 -1.298,43.835c17.964,27.351 76.265,81.639 258.396,93.413l-100.234,-104.021Z" style="fill:#f7f3f3;"/></g><g><path d="M2428.18,2113.47c-0,0 1.158,86.478 -37.03,133.776c-0,-0 9.023,-82.58 -14.678,-113.139l51.708,-20.637Z" style="fill:#f7f3f3;"/><path d="M2374.03,2038.24c-0,0 110.421,28.313 49.157,88.927c0,-0 -76.146,60.002 -79.389,-49.994l30.232,-38.933Z" style="fill:#f7f3f3;"/><path d="M2250.78,2007.34c-0,0 131.248,-20.162 130.77,37.88c-0.157,15.435 -8.862,29.51 -22.603,36.542c-24.397,11.978 -78.166,25.951 -166.684,-15.215l58.517,-59.207Z" style="fill:#f7f3f3;"/></g><g><path d="M1347.3,2113.47c-0,0 -1.159,86.478 37.03,133.776c-0,-0 -9.024,-82.58 14.677,-113.139l-51.707,-20.637Z" style="fill:#f7f3f3;"/><path d="M1401.45,2038.24c-0,0 -110.421,28.313 -49.158,88.927c0,-0 76.147,60.002 79.389,-49.994l-30.231,-38.933Z" style="fill:#f7f3f3;"/><path d="M1524.7,2007.34c-0,0 -131.249,-20.162 -130.77,37.88c0.156,15.435 8.862,29.51 22.603,36.542c24.396,11.978 78.165,25.951 166.683,-15.215l-58.516,-59.207Z" style="fill:#f7f3f3;"/></g><g><g transform="matrix(78.034,0,0,78.034,1769.24,1892)"></g><text x="1519.93px" y="1892.01px" style="font-family:'Arial-BoldMT', 'Arial', sans-serif;font-weight:700;font-size:78.034px;fill:#13a430;">GRM =</text><g transform="matrix(78.034,0,0,78.034,2131.75,1823.82)"></g><text x="1965.89px" y="1823.82px" style="font-family:'Arial-BoldMT', 'Arial', sans-serif;font-weight:700;font-size:78.034px;fill:#13a430;">WW&apos;</text><g transform="matrix(6.50283,0,0,6.50283,1138.66,-3094.28)"><text x="114.306px" y="774.729px" style="font-family:'Arial-BoldMT', 'Arial', sans-serif;font-weight:700;font-size:12px;fill:#13a430;">2Σp</text><text x="135.511px" y="774.729px" style="font-family:'Arial-BoldMT', 'Arial', sans-serif;font-weight:700;font-size:7.689px;fill:#13a430;">j</text><text x="137.647px" y="774.729px" style="font-family:'Arial-BoldMT', 'Arial', sans-serif;font-weight:700;font-size:12px;fill:#13a430;">(1-p</text><text x="159.643px" y="774.729px" style="font-family:'Arial-BoldMT', 'Arial', sans-serif;font-weight:700;font-size:7.689px;fill:#13a430;">j</text><g transform="matrix(12,0,0,12,165.776,774.729)"></g><text x="161.779px" y="774.729px" style="font-family:'Arial-BoldMT', 'Arial', sans-serif;font-weight:700;font-size:12px;fill:#13a430;">)</text></g><path d="M1845.57,1863.54l391.564,0" style="fill:none;stroke:#13a430;stroke-width:8.33px;"/></g></g></g><g><g><path d="M1719.23,1664.98c0,-0 45.147,-2.711 68.713,-78.08c0,-0 46.514,-167.624 101.664,-166.185" style="fill:none;stroke:#13a430;stroke-width:8.33px;"/><path d="M2057.95,1664.98c0,-0 -45.147,-2.711 -68.713,-78.08c0,-0 -46.514,-167.624 -101.663,-166.185" style="fill:none;stroke:#13a430;stroke-width:8.33px;"/></g><path d="M1684.54,1411.57l0,283.267l433.632,0" style="fill:none;stroke:#13a430;stroke-width:8.33px;"/></g><path d="M1887.45,1419.97l-0,245.402" style="fill:none;stroke:#13a430;stroke-width:3.13px;stroke-dasharray:6.25,15.63,0,0,0,0;"/><g transform="matrix(38.3805,0,0,38.3805,1901.01,1724.64)"></g><text x="1877.57px" y="1724.64px" style="font-family:'Arial-BoldMT', 'Arial', sans-serif;font-weight:700;font-size:38.381px;fill:#13a430;">o</text><g transform="matrix(37.5,0,0,37.5,2084.07,1552.6)"></g><text x="1994.83px" y="1552.6px" style="font-family:'Arial-BoldMT', 'Arial', sans-serif;font-weight:700;font-size:37.5px;fill:#13a430;">σ = 1</text><path d="M1791.91,1579.86c0,-0 31.692,-90.799 34.728,-88.762l-0,174.727l-34.56,0l-0.168,-85.965Z" style="fill:#13a430;"/></g></svg>